<?xml version="1.0" encoding="UTF-8" standalone="no"?>
<!DOCTYPE svg PUBLIC "-//W3C//DTD SVG 1.1//EN" "http://www.w3.org/Graphics/SVG/1.1/DTD/svg11.dtd">
<svg width="100%" height="100%" viewBox="0 0 1580 355" version="1.1" xmlns="http://www.w3.org/2000/svg" xmlns:xlink="http://www.w3.org/1999/xlink" xml:space="preserve" xmlns:serif="http://www.serif.com/" style="fill-rule:evenodd;clip-rule:evenodd;stroke-linejoin:round;stroke-miterlimit:2;">
    <g transform="matrix(1,0,0,1,-3996.47,-442.913)">
        <g transform="matrix(1,0,0,1,-0.364829,0)">
            <g transform="matrix(7.36533,0,0,7.36533,684.945,-6502.07)">
                <g transform="matrix(1.39443,0,0,1.39443,66.8272,181.886)">
                    <path d="M292.727,553.822L297.785,566.088L290.478,566.088L289.156,569.584C289.156,569.584 290.158,569.779 291.55,570.049C296.735,571.057 301.028,574.68 302.894,579.622L302.894,579.623L311.144,579.623L297.994,546.423L287.744,546.423L274.544,579.623L282.694,579.623L292.727,553.822Z" style="fill:white;fill-rule:nonzero;"/>
                </g>
                <g transform="matrix(1.39443,0,0,1.39443,66.8272,181.886)">
                    <path d="M349.244,546.423L317.644,546.423L317.644,579.623L349.244,579.623L349.244,572.573L325.294,572.573L325.294,566.523L343.094,566.523L343.094,559.473L325.294,559.473L325.294,553.523L349.244,553.523L349.244,546.423Z" style="fill:white;fill-rule:nonzero;"/>
                </g>
                <g transform="matrix(1.39443,0,0,1.39443,66.8272,181.886)">
                    <path d="M356.044,568.723L356.044,569.373C356.044,571.873 356.811,573.939 358.344,575.573C359.877,577.206 361.819,578.398 364.169,579.148C366.519,579.898 368.961,580.273 371.494,580.273C375.961,580.273 379.669,579.423 382.619,577.723C385.569,576.023 387.044,573.189 387.044,569.223C387.044,565.256 385.652,562.589 382.869,561.223C380.086,559.856 376.411,559.173 371.844,559.173C370.844,559.173 370.061,559.156 369.494,559.123C368.494,559.056 367.644,558.939 366.944,558.773C365.177,558.406 364.294,557.623 364.294,556.423C364.294,555.056 365.077,554.106 366.644,553.573C367.877,553.106 369.494,552.873 371.494,552.873C373.261,552.873 374.877,553.156 376.344,553.723C377.944,554.389 378.744,555.356 378.744,556.623L378.744,557.373L386.394,557.373L386.394,556.623C386.394,554.189 385.669,552.156 384.219,550.523C382.769,548.889 380.911,547.689 378.644,546.923C376.377,546.156 373.994,545.773 371.494,545.773C367.194,545.773 363.644,546.598 360.844,548.248C358.044,549.898 356.644,552.623 356.644,556.423C356.644,560.256 357.969,562.848 360.619,564.198C363.269,565.548 366.811,566.223 371.244,566.223C372.277,566.223 373.111,566.239 373.744,566.273C374.877,566.339 375.811,566.473 376.544,566.673C378.411,567.139 379.344,567.989 379.344,569.223C379.344,570.656 378.494,571.723 376.794,572.423C375.427,572.923 373.661,573.173 371.494,573.173C369.527,573.173 367.827,572.906 366.394,572.373C364.561,571.673 363.644,570.673 363.644,569.373L363.644,568.723L356.044,568.723Z" style="fill:white;fill-rule:nonzero;"/>
                </g>
                <g transform="matrix(1.39443,0,0,1.39443,230.185,181.886)">
                    <path d="M292.727,553.822L297.785,566.088L290.478,566.088L289.156,569.584C289.156,569.584 290.158,569.779 291.55,570.049C296.735,571.057 301.028,574.68 302.894,579.622L302.894,579.623L311.144,579.623L297.994,546.423L287.744,546.423L274.544,579.623L282.694,579.623L292.727,553.822Z" style="fill:white;fill-rule:nonzero;"/>
                </g>
            </g>
        </g>
    </g>
</svg>
