<?xml version="1.0" encoding="iso-8859-1"?>
<!-- Uploaded to: SVG Repo, www.svgrepo.com, Generator: SVG Repo Mixer Tools -->
<svg height="800px" width="800px" version="1.1" id="Layer_1" xmlns="http://www.w3.org/2000/svg" xmlns:xlink="http://www.w3.org/1999/xlink" 
	 viewBox="0 0 503.467 503.467" xml:space="preserve">
<g transform="translate(1 9)">
	<path style="fill:#AAB1BA;" d="M122.733,319.533c28.16,0,51.2,23.04,51.2,51.2c0,28.16-23.04,51.2-51.2,51.2s-51.2-23.04-51.2-51.2
		C71.533,342.573,94.573,319.533,122.733,319.533z M412.867,319.533c28.16,0,51.2,23.04,51.2,51.2c0,28.16-23.04,51.2-51.2,51.2
		c-28.16,0-51.2-23.04-51.2-51.2C361.667,342.573,384.707,319.533,412.867,319.533z"/>
	<path style="fill:#E4F2DE;" d="M412.867,353.667c9.387,0,17.067,7.68,17.067,17.067c0,9.387-7.68,17.067-17.067,17.067
		s-17.067-7.68-17.067-17.067C395.8,361.347,403.48,353.667,412.867,353.667z M122.733,353.667c9.387,0,17.067,7.68,17.067,17.067
		c0,9.387-7.68,17.067-17.067,17.067s-17.067-7.68-17.067-17.067C105.667,361.347,113.347,353.667,122.733,353.667z"/>
	<path style="fill:#7EE1E6;" d="M327.533,285.4v85.333h-153.6c0-28.16-23.04-51.2-51.2-51.2s-51.2,23.04-51.2,51.2H37.4
		c-9.387,0-17.92-3.413-23.893-10.24c-5.973-5.973-10.24-14.507-10.24-23.893v-51.2H327.533z M498.2,285.4v85.333h-34.133
		c0-28.16-23.04-51.2-51.2-51.2c-28.16,0-51.2,23.04-51.2,51.2h-34.133V285.4v-68.267h85.333h51.2l25.6,25.6
		c8.533,8.533,8.533,25.6,8.533,25.6V285.4z"/>
	<path style="fill:#E4F2DE;" d="M412.867,217.133h-85.333V80.6H421.4c18.773,0,34.133,15.36,34.133,34.133l8.533,102.4H412.867z"/>
	<path style="fill:#C49AE9;" d="M327.533,217.133V285.4H3.267V63.533C3.267,44.76,18.627,29.4,37.4,29.4h290.133v51.2V217.133z"/>
</g>
<path style="fill:#51565F;" d="M499.2,469.333H362.667c-2.56,0-4.267-1.707-4.267-4.267c0-2.56,1.707-4.267,4.267-4.267H499.2
	c2.56,0,4.267,1.707,4.267,4.267C503.467,467.627,501.76,469.333,499.2,469.333z M328.533,469.333h-17.067
	c-2.56,0-4.267-1.707-4.267-4.267c0-2.56,1.707-4.267,4.267-4.267h17.067c2.56,0,4.267,1.707,4.267,4.267
	C332.8,467.627,331.093,469.333,328.533,469.333z M260.267,469.333h-85.333c-2.56,0-4.267-1.707-4.267-4.267
	c0-2.56,1.707-4.267,4.267-4.267h85.333c2.56,0,4.267,1.707,4.267,4.267C264.533,467.627,262.827,469.333,260.267,469.333z
	 M123.733,469.333H4.267c-2.56,0-4.267-1.707-4.267-4.267c0-2.56,1.707-4.267,4.267-4.267h119.467c2.56,0,4.267,1.707,4.267,4.267
	C128,467.627,126.293,469.333,123.733,469.333z M413.867,435.2c-30.72,0-55.467-24.747-55.467-55.467s24.747-55.467,55.467-55.467
	c29.013,0,52.907,22.187,55.467,51.2h25.6v-76.8h-12.8c-2.56,0-4.267-1.707-4.267-4.267c0-2.56,1.707-4.267,4.267-4.267h12.8v-12.8
	c0,0,0-15.36-7.68-22.187L462.507,230.4h-49.493l0,0h-51.2c-2.56,0-4.267-1.707-4.267-4.267s1.707-4.267,4.267-4.267h48.64
	l16.213-31.573c0.853-1.707,3.413-2.56,5.973-1.707c1.707,0.853,2.56,2.56,2.56,3.413c0,0.853,0,1.707-0.853,1.707l-13.653,28.16
	h39.253l-8.533-98.133c0-16.213-13.653-29.867-29.867-29.867h-59.733c-2.56,0-4.267-1.707-4.267-4.267
	c0-2.56,1.707-4.267,4.267-4.267h59.733c21.333,0,38.4,17.067,38.4,38.4l8.533,100.693l24.747,24.747
	c9.387,9.387,9.387,28.16,9.387,29.013v102.4c0,2.56-1.707,4.267-4.267,4.267H468.48C466.773,413.013,442.88,435.2,413.867,435.2z
	 M413.867,332.8c-25.6,0-46.933,21.333-46.933,46.933c0,25.6,21.333,46.933,46.933,46.933c25.6,0,46.933-21.333,46.933-46.933
	C460.8,354.133,439.467,332.8,413.867,332.8z M123.733,435.2c-30.72,0-55.467-24.747-55.467-55.467s24.747-55.467,55.467-55.467
	c29.013,0,52.907,22.187,55.467,51.2h145.067v-76.8H38.4c-2.56,0-4.267-1.707-4.267-4.267c0-2.56,1.707-4.267,4.267-4.267h285.867
	V42.667H38.4c-16.213,0-29.867,13.653-29.867,29.867V345.6c0,17.067,12.8,29.867,29.867,29.867c2.56,0,4.267,1.707,4.267,4.267
	c0,2.56-1.707,4.267-4.267,4.267C17.067,384,0,366.933,0,345.6V72.533c0-21.333,17.067-38.4,38.4-38.4h290.133
	c2.56,0,4.267,1.707,4.267,4.267v341.333c0,2.56-1.707,4.267-4.267,4.267H179.2C176.64,413.013,152.747,435.2,123.733,435.2z
	 M123.733,332.8c-25.6,0-46.933,21.333-46.933,46.933c0,25.6,21.333,46.933,46.933,46.933s46.933-21.333,46.933-46.933
	C170.667,354.133,149.333,332.8,123.733,332.8z M413.867,401.067c-11.947,0-21.333-9.387-21.333-21.333
	c0-11.947,9.387-21.333,21.333-21.333c11.947,0,21.333,9.387,21.333,21.333C435.2,391.68,425.813,401.067,413.867,401.067z
	 M413.867,366.933c-6.827,0-12.8,5.973-12.8,12.8c0,6.827,5.973,12.8,12.8,12.8s12.8-5.973,12.8-12.8
	C426.667,372.907,420.693,366.933,413.867,366.933z M123.733,401.067c-11.947,0-21.333-9.387-21.333-21.333
	c0-11.947,9.387-21.333,21.333-21.333c11.947,0,21.333,9.387,21.333,21.333C145.067,391.68,135.68,401.067,123.733,401.067z
	 M123.733,366.933c-6.827,0-12.8,5.973-12.8,12.8c0,6.827,5.973,12.8,12.8,12.8c6.827,0,12.8-5.973,12.8-12.8
	C136.533,372.907,130.56,366.933,123.733,366.933z"/>
</svg>