<?xml version="1.0" encoding="UTF-8"?>
<svg width="48" height="48" viewBox="0 0 48 48" fill="none" xmlns="http://www.w3.org/2000/svg">
    <!-- Okraj -->
    <path d="M24 4C13.5066 4 5 12.5066 5 23C5 30.4 8.8 36.9 14.7 40.6L24 48L33.3 40.6C39.2 36.9 43 30.4 43 23C43 12.5066 34.4934 4 24 4Z" 
          stroke="#FFFFFF" 
          stroke-width="2"
          fill="#FF6B00"/>
    
    <!-- Ikona auta -->
    <path d="M33 21.5L31.12 15.51C30.94 14.99 30.47 14.64 29.92 14.64H18.08C17.53 14.64 17.06 14.99 16.88 15.51L15 21.5C14 21.5 13 22.3 13 23.5V31.5C13 32.05 13.45 32.5 14 32.5H15C15.55 32.5 16 32.05 16 31.5V30.5H32V31.5C32 32.05 32.45 32.5 33 32.5H34C34.55 32.5 35 32.05 35 31.5V23.5C35 22.3 34 21.5 33 21.5ZM18.08 16.64H29.92L31.34 21.5H16.66L18.08 16.64ZM17 27.5C16.17 27.5 15.5 26.83 15.5 26C15.5 25.17 16.17 24.5 17 24.5C17.83 24.5 18.5 25.17 18.5 26C18.5 26.83 17.83 27.5 17 27.5ZM31 27.5C30.17 27.5 29.5 26.83 29.5 26C29.5 25.17 30.17 24.5 31 24.5C31.83 24.5 32.5 25.17 32.5 26C32.5 26.83 31.83 27.5 31 27.5Z" 
          fill="white"/>
</svg> 